HIERARCHY
ROOT Hips
{
	OFFSET 0.000000 0.000000 0.000000
	CHANNELS 6 Xposition Yposition Zposition Zrotation Yrotation Xrotation 
	JOINT LHipJoint
	{
		OFFSET 0.000000 0.000000 0.000000
		CHANNELS 3 Zrotation Yrotation Xrotation
		JOINT LeftUpLeg
		{
			OFFSET 1.363060 -1.794630 0.839290
			CHANNELS 3 Zrotation Yrotation Xrotation
			JOINT LeftLeg
			{
				OFFSET 2.448110 -6.726130 0.000000
				CHANNELS 3 Zrotation Yrotation Xrotation
				JOINT LeftFoot
				{
					OFFSET 2.562200 -7.039590 0.000000
					CHANNELS 3 Zrotation Yrotation Xrotation
					JOINT LeftToeBase
					{
						OFFSET 0.157640 -0.433110 2.322550
						CHANNELS 3 Zrotation Yrotation Xrotation
						End Site
						{
							OFFSET 0.000000 0.000000 0.000000
						}
					}
				}
			}
		}
	}
	JOINT RHipJoint
	{
		OFFSET 0.000000 0.000000 0.000000
		CHANNELS 3 Zrotation Yrotation Xrotation
		JOINT RightUpLeg
		{
			OFFSET -1.305520 -1.794630 0.839290
			CHANNELS 3 Zrotation Yrotation Xrotation
			JOINT RightLeg
			{
				OFFSET -2.542530 -6.985550 0.000000
				CHANNELS 3 Zrotation Yrotation Xrotation
				JOINT RightFoot
				{
					OFFSET -2.568260 -7.056230 0.000000
					CHANNELS 3 Zrotation Yrotation Xrotation
					JOINT RightToeBase
					{
						OFFSET -0.164730 -0.452590 2.363150
						CHANNELS 3 Zrotation Yrotation Xrotation
						End Site
						{
							OFFSET 0.000000 0.000000 0.000000
						}
					}
				}
			}
		}
	}
	JOINT LowerBack
	{
		OFFSET 0.000000 0.000000 0.000000
		CHANNELS 3 Zrotation Yrotation Xrotation
		JOINT Spine
		{
			OFFSET 0.028270 2.035590 -0.193380
			CHANNELS 3 Zrotation Yrotation Xrotation
			JOINT Spine1
			{
				OFFSET 0.056720 2.048850 -0.042750
				CHANNELS 3 Zrotation Yrotation Xrotation
				JOINT Neck
				{
					OFFSET 0.000000 0.000000 0.000000
					CHANNELS 3 Zrotation Yrotation Xrotation
					JOINT Neck1
					{
						OFFSET -0.054170 1.746240 0.172020
						CHANNELS 3 Zrotation Yrotation Xrotation
						JOINT Head
						{
							OFFSET 0.104070 1.761360 -0.123970
							CHANNELS 3 Zrotation Yrotation Xrotation
							End Site
							{
								OFFSET 0.000000 0.000000 0.000000
							}
						}
					}
				}
				JOINT LeftShoulder
				{
					OFFSET 0.000000 0.000000 0.000000
					CHANNELS 3 Zrotation Yrotation Xrotation
					JOINT LeftArm
					{
						OFFSET 3.362410 1.200890 -0.311210
						CHANNELS 3 Zrotation Yrotation Xrotation
						JOINT LeftForeArm
						{
							OFFSET 4.983000 -0.000000 -0.000000
							CHANNELS 3 Zrotation Yrotation Xrotation
							JOINT LeftHand
							{
								OFFSET 3.483560 -0.000000 -0.000000
								CHANNELS 3 Zrotation Yrotation Xrotation
								JOINT LeftFingerBase
								{
									OFFSET 0.000000 0.000000 0.000000
									CHANNELS 3 Zrotation Yrotation Xrotation
									JOINT LeftHandIndex1
									{
										OFFSET 0.715260 -0.000000 -0.000000
										CHANNELS 3 Zrotation Yrotation Xrotation
										End Site
										{
											OFFSET 0.000000 0.000000 0.000000
										}
									}
								}
								JOINT LThumb
								{
									OFFSET 0.000000 0.000000 0.000000
									CHANNELS 3 Zrotation Yrotation Xrotation
									End Site
									{
										OFFSET 0.000000 0.000000 0.000000
									}
								}
							}
						}
					}
				}
				JOINT RightShoulder
				{
					OFFSET 0.000000 0.000000 0.000000
					CHANNELS 3 Zrotation Yrotation Xrotation
					JOINT RightArm
					{
						OFFSET -3.136600 1.374050 -0.404650
						CHANNELS 3 Zrotation Yrotation Xrotation
						JOINT RightForeArm
						{
							OFFSET -5.241900 -0.000000 -0.000000
							CHANNELS 3 Zrotation Yrotation Xrotation
							JOINT RightHand
							{
								OFFSET -3.444170 -0.000000 -0.000000
								CHANNELS 3 Zrotation Yrotation Xrotation
								JOINT RightFingerBase
								{
									OFFSET 0.000000 0.000000 0.000000
									CHANNELS 3 Zrotation Yrotation Xrotation
									JOINT RightHandIndex1
									{
										OFFSET -0.622530 -0.000000 -0.000000
										CHANNELS 3 Zrotation Yrotation Xrotation
										End Site
										{
											OFFSET 0.000000 0.000000 0.000000
										}
									}
								}
								JOINT RThumb
								{
									OFFSET 0.000000 0.000000 0.000000
									CHANNELS 3 Zrotation Yrotation Xrotation
									End Site
									{
										OFFSET 0.000000 0.000000 0.000000
									}
								}
							}
						}
					}
				}
			}
		}
	}
}
MOTION
Frames: 12
Frame Time: 0.008333
19.638456 17.588613 -1.344398 138.699888 -87.368313 -146.067772 5.204015 -0.142152 -0.220782 -19.657403 -17.046056 -4.918851 1.808795 12.992788 36.343045 -2.831156 11.764990 -3.750667 0.335200 3.720600 10.292000 -7.390302 0.036642 -1.939512 31.123402 10.714276 8.038432 -1.306491 -10.624299 30.368443 1.236246 -15.759776 -31.228677 -1.043000 6.494900 -18.227400 2.407188 -1.181756 6.344587 2.386958 -1.169581 1.321305 -5.579764 -1.022065 4.938113 -7.998869 9.143971 -18.178150 -7.525376 -74.658449 19.175030 178.981300 -46.082000 41.499000 7.260897 5.743969 -1.018158 -94.754462 5.779332 17.986065 13.827614 -18.440529 -3.739539 -1.092271 -3.442310 3.408720 12.831853 7.221777 2.621500 -7.125000 0.000000 0.000000 -11.753600 40.783600 1.241500 -13.502203 -5.489443 0.184494 92.191142 -18.103968 36.903013 -20.538573 33.192751 -10.432032 -0.907720 2.567735 -18.121894 -5.746266 -5.916194 0.859400 7.125000 0.000000 0.000000 18.056200 -38.066600 3.208500 
19.691509 17.584327 -1.418650 143.175168 -87.466697 -150.633358 5.215081 -0.138926 -0.234647 -18.954594 -16.515451 -5.538549 2.000699 13.175021 37.108587 -1.554802 7.722921 -1.629153 0.000400 0.131700 0.361900 -7.442684 0.067920 -1.955503 31.656040 10.641419 7.958789 -1.291498 -10.653419 30.384026 1.173853 -15.753700 -31.571602 -1.257600 7.109200 -20.039200 2.842726 -1.105923 6.528678 2.427494 -1.059646 1.365831 -5.710060 -0.940688 4.965462 -8.059953 9.182540 -18.154784 -6.846523 -73.910837 18.475260 178.987300 -45.597000 41.269000 7.204501 5.732806 -0.999436 -94.885997 5.795404 17.678257 13.699547 -18.206257 -3.645373 -1.066282 -3.436142 4.137292 12.551132 7.393678 2.592800 -7.125000 0.000000 0.000000 -12.096800 40.927300 1.235400 -13.470445 -5.485202 0.181918 92.115623 -17.786107 36.735781 -20.703581 33.319818 -10.526064 -0.911034 2.586866 -18.434567 -5.905348 -6.026658 0.899600 7.125000 0.000000 0.000000 17.943400 -38.204000 3.123600 
19.732747 17.581779 -1.483286 140.155169 -87.172166 -147.833913 5.287388 -0.200373 -0.262909 -18.991322 -16.370461 -5.856231 2.152917 13.352043 37.874076 0.211195 1.904232 -0.256882 0.239400 -3.148600 -8.692800 -7.438574 0.080051 -1.954244 31.743741 10.968507 8.281653 -1.292849 -10.653268 30.438380 0.975959 -15.550030 -32.301600 -1.445300 7.599900 -21.505300 2.813064 -0.930593 6.753664 2.395553 -0.826563 1.428166 -5.854435 -0.806720 5.009633 -8.132879 9.145607 -18.071489 -6.714383 -73.770352 18.334728 178.897300 -45.332000 41.238000 7.114725 5.726276 -0.971469 -94.878323 5.703527 17.316365 13.501701 -17.853284 -3.510647 -1.037062 -3.359954 4.448119 12.224903 7.176740 2.452000 -7.125000 0.000000 0.000000 -12.350800 40.601400 1.363200 -13.441709 -5.474094 0.186713 92.168502 -17.517944 36.335890 -20.809144 33.395288 -10.582215 -0.921658 2.608597 -18.868116 -6.044074 -6.170825 0.941400 7.125000 0.000000 0.000000 17.857200 -38.376800 3.028300 
19.772826 17.582590 -1.542826 136.560900 -86.770552 -144.401882 5.366215 -0.298046 -0.292584 -19.112873 -16.799437 -6.130131 2.314398 13.557226 38.600841 1.912692 -4.302472 0.292947 0.495300 -4.512200 -12.522400 -7.435571 0.107978 -1.939147 31.811120 11.623718 8.692981 -1.295419 -10.653863 30.512537 0.710648 -15.285151 -33.259087 -1.549700 7.857300 -22.281600 2.623617 -0.776912 6.972316 2.357617 -0.629429 1.475148 -5.924364 -0.696988 5.009951 -8.149596 9.145711 -18.009336 -6.391152 -73.416610 18.011906 178.819100 -45.107000 41.150000 7.042811 5.713542 -0.949113 -94.897671 5.651274 16.694625 13.371477 -17.630044 -3.429444 -0.890580 -3.363701 3.795716 11.543997 7.180724 2.295600 -7.125000 0.000000 0.000000 -13.027900 40.518800 1.467800 -13.399125 -5.454884 0.191441 92.202096 -17.124867 35.895665 -20.768680 33.303057 -10.520629 -0.896180 2.603606 -19.149153 -6.189651 -5.929198 0.942600 7.125000 0.000000 0.000000 17.642100 -38.146600 3.092900 
19.816033 17.578304 -1.592752 135.863144 -86.396373 -143.742051 5.419452 -0.366608 -0.316147 -19.056076 -17.042877 -6.507553 2.518607 13.791114 39.361491 2.955607 -8.825457 0.685820 0.946100 -6.194900 -17.350900 -7.446606 0.130698 -1.928766 31.798521 12.010825 8.811041 -1.287899 -10.645258 30.512119 0.570507 -15.159083 -33.775997 -1.692000 8.192800 -23.301100 2.581917 -0.693264 7.087534 2.354221 -0.525750 1.495756 -5.950713 -0.631042 4.990281 -8.215220 9.268845 -17.946716 -5.840152 -72.647028 17.439117 178.839600 -44.747000 40.943000 6.997650 5.703729 -0.937110 -95.044700 5.712654 15.923197 13.316593 -17.532563 -3.377982 -0.621153 -3.588920 2.246668 10.629693 8.168619 2.312400 -7.125000 0.000000 0.000000 -14.265800 41.588500 1.228300 -13.363537 -5.444728 0.187873 92.086845 -16.693241 35.562507 -20.745047 33.228296 -10.467278 -0.840341 2.576404 -19.183371 -6.342372 -5.390835 0.908200 7.125000 0.000000 0.000000 17.334200 -37.602300 3.275900 
19.843602 17.572860 -1.629240 140.695934 -85.765011 -148.591348 5.428373 -0.356698 -0.332058 -18.863966 -16.299171 -6.945362 2.788519 14.032657 40.297039 3.585034 -12.280204 1.224598 2.210200 -9.290900 -26.709600 -7.485077 0.134263 -1.939136 31.663677 12.049857 8.790218 -1.281446 -10.609359 30.420763 0.452365 -14.673016 -33.640549 -1.879700 8.610900 -24.585500 2.832901 -0.512497 7.084348 2.365438 -0.286985 1.514537 -6.087672 -0.476896 5.006304 -8.360902 9.497679 -17.872122 -5.353869 -71.873613 16.907665 178.749900 -44.333000 40.821000 6.957059 5.728014 -0.932321 -95.220136 5.907238 15.097557 13.231848 -17.380852 -3.276663 -0.344332 -3.935144 0.739108 9.863208 9.832630 2.460800 -7.125000 0.000000 0.000000 -15.648400 43.446000 0.616200 -13.336822 -5.463082 0.176354 91.885571 -16.335270 35.230941 -20.805610 33.258392 -10.479724 -0.814561 2.564843 -19.150205 -6.431133 -5.177495 0.897300 7.125000 0.000000 0.000000 17.189400 -37.386200 3.341300 
19.884261 17.585949 -1.667235 145.191710 -85.679607 -153.037031 5.462540 -0.366298 -0.327979 -18.020741 -16.514946 -7.507703 2.995994 14.266687 41.156316 3.774124 -14.178156 2.997936 2.250200 -9.368900 -26.956200 -7.519218 0.170908 -1.940201 31.977963 12.065837 8.785425 -1.231128 -10.542218 30.184222 0.298086 -14.283967 -33.846721 -2.025000 8.918000 -25.539200 3.397197 -0.484353 7.287057 2.419026 -0.224182 1.472207 -6.209438 -0.415602 4.749970 -8.472202 9.772437 -17.761488 -4.775016 -71.188062 16.304512 178.412700 -43.853000 40.801000 6.928520 5.747965 -0.929389 -95.371154 6.144545 14.145234 13.089809 -17.183055 -3.221068 -0.244483 -3.777719 -0.425232 9.379487 8.938297 2.159000 -7.125000 0.000000 0.000000 -15.784100 42.358900 1.057300 -13.335515 -5.453636 0.157163 91.753160 -16.071804 34.725667 -20.978466 33.395332 -10.577392 -0.830865 2.566819 -19.248185 -6.379603 -5.310547 0.904400 7.125000 0.000000 0.000000 17.273900 -37.516600 3.301500 
19.910788 17.591509 -1.698163 152.240370 -85.242961 -160.061668 5.473632 -0.310946 -0.335639 -17.012897 -16.081282 -7.991554 3.278247 14.488489 42.048283 3.938254 -15.206236 2.895994 2.582100 -9.985700 -28.930500 -7.564958 0.213310 -1.941796 32.425773 12.329215 8.988615 -1.158259 -10.431927 29.830564 0.191513 -14.011953 -33.983037 -2.263900 9.395300 -27.039900 4.023398 -0.331107 7.376585 2.476126 0.002116 1.460676 -6.347072 -0.271467 4.630194 -8.592083 10.042216 -17.684483 -4.341365 -70.693852 15.861463 178.018100 -43.457000 40.868000 6.900545 5.775985 -0.923730 -95.483854 6.341505 13.259248 12.936705 -16.933975 -3.110513 -0.121752 -3.824896 -1.302660 8.961490 9.180189 2.094700 -7.125000 0.000000 0.000000 -16.286200 42.588000 0.998000 -13.328965 -5.459707 0.136963 91.591187 -15.879611 34.123438 -21.233821 33.646131 -10.756876 -0.856041 2.557764 -19.194053 -6.176958 -5.429270 0.884300 7.125000 0.000000 0.000000 17.493500 -37.613900 3.303200 
19.925383 17.600776 -1.724574 153.894643 -84.583621 -161.639386 5.502522 -0.306301 -0.369571 -16.451694 -15.746299 -8.385831 3.516078 14.684632 42.809843 4.057406 -16.084778 2.800401 3.031600 -10.746100 -31.428200 -7.570003 0.221809 -1.924104 32.425546 12.788454 9.324247 -1.069884 -10.259343 29.354149 0.037164 -13.684814 -34.270192 -2.438900 9.726000 -28.094000 4.246957 -0.173008 7.247203 2.479143 0.205867 1.472572 -6.472859 -0.138776 4.715385 -8.717958 10.186289 -17.707219 -4.504977 -70.753079 15.972711 177.813100 -43.619000 41.074000 6.873385 5.804712 -0.917657 -95.499764 6.527079 12.601764 12.818627 -16.765424 -3.025342 -0.014872 -3.900503 -1.994548 8.652305 9.573028 2.080900 -7.125000 0.000000 0.000000 -16.746100 43.004000 0.850500 -13.319383 -5.469558 0.128817 91.491234 -15.504649 33.397128 -21.453314 33.844885 -10.898040 -0.884351 2.566853 -18.815539 -6.048777 -5.716392 0.892000 7.125000 0.000000 0.000000 17.709000 -37.894200 3.220000 
19.947624 17.617109 -1.753649 152.876171 -84.146351 -160.623421 5.550704 -0.349490 -0.398817 -16.021131 -16.078526 -8.652585 3.669750 14.845284 43.395723 4.123182 -17.239204 3.578289 3.120100 -10.886900 -31.899500 -7.563840 0.227444 -1.904243 32.407607 13.292003 9.764525 -0.987064 -10.095115 28.934721 -0.081963 -13.665101 -34.820277 -2.524900 9.883000 -28.598600 4.242433 -0.125045 7.264843 2.471602 0.258065 1.490120 -6.492481 -0.092304 4.766670 -8.805001 10.242285 -17.782350 -4.934422 -71.030951 16.320008 177.754500 -44.159000 41.314000 6.868202 5.827030 -0.918772 -95.467521 6.791263 12.166336 12.757620 -16.737386 -3.014702 0.075699 -3.875591 -2.416100 8.280838 9.472785 1.959000 -7.125000 0.000000 0.000000 -17.087900 42.839500 0.940700 -13.302177 -5.463399 0.132679 91.532563 -14.946810 32.670282 -21.603498 33.921952 -10.960853 -0.927896 2.612623 -18.794402 -6.118121 -6.307748 0.966900 7.125000 0.000000 0.000000 17.839500 -38.518700 2.960200 
19.963493 17.639234 -1.778206 155.495785 -83.601325 -163.259925 5.581256 -0.347996 -0.407255 -15.184663 -16.537460 -8.720347 3.824832 14.954104 43.894926 4.188718 -18.152798 4.053055 2.816600 -10.392100 -30.256200 -7.594778 0.256379 -1.893016 32.773565 13.859501 10.189549 -0.911408 -9.967963 28.580715 -0.093619 -13.832343 -35.110957 -2.614600 10.043300 -29.117200 4.546736 -0.040782 7.348071 2.498801 0.374359 1.497816 -6.521848 -0.009914 4.750217 -8.917765 10.612286 -17.853480 -4.130654 -70.235238 15.516508 177.273500 -43.607000 41.340000 6.863043 5.848853 -0.926936 -95.439100 7.099305 11.601403 12.672005 -16.666680 -2.983996 0.167086 -3.852930 -2.211620 7.801257 9.491181 1.820200 -7.125000 0.000000 0.000000 -17.597300 42.777900 0.998400 -13.285891 -5.478911 0.125557 91.562793 -14.486562 32.047310 -21.745738 33.998353 -11.023355 -0.954242 2.642582 -19.065788 -6.210330 -6.655529 1.022700 7.125000 0.000000 0.000000 17.865000 -38.894100 2.792800 
19.983301 17.651281 -1.794886 157.068002 -83.036012 -164.881419 5.605716 -0.322381 -0.417196 -14.448713 -16.900827 -8.581274 4.022410 15.068684 44.427053 4.147699 -16.992624 3.206068 2.469800 -9.782700 -28.276000 -7.618808 0.267597 -1.876642 32.999448 14.385262 10.562441 -0.848418 -9.849902 28.257612 -0.080964 -13.936722 -35.193716 -2.628000 10.067000 -29.194100 4.799609 0.031363 7.494467 2.510785 0.482943 1.496134 -6.597914 0.063650 4.675397 -8.930800 10.850674 -17.889791 -3.877065 -69.944875 15.241753 176.989900 -43.558000 41.444000 6.857697 5.867306 -0.932371 -95.334050 7.369142 11.062267 12.553584 -16.517113 -2.913664 0.253598 -3.872435 -1.459194 7.291996 9.821217 1.711000 -7.125000 0.000000 0.000000 -18.269300 43.046800 0.913400 -13.274250 -5.481870 0.120549 91.630216 -14.111671 31.396302 -21.909421 34.093887 -11.083898 -0.900130 2.667429 -19.286668 -6.760269 -6.427034 1.100200 7.125000 0.000000 0.000000 17.290800 -38.729600 2.769000 
